<svg xmlns="http://www.w3.org/2000/svg" viewBox="0 0 20 24" fill="none">
  <!-- Open book left page -->
  <path d="M10 4C10 4 7 3 2 3.5V19.5C7 19 10 20 10 20V4Z" fill="currentColor" opacity=".08"/>
  <path d="M10 4C10 4 7 3 2 3.5V19.5C7 19 10 20 10 20V4Z" stroke="currentColor" strokeWidth="1.1" strokeLinejoin="round"/>
  <!-- Open book right page -->
  <path d="M10 4C10 4 13 3 18 3.5V19.5C13 19 10 20 10 20V4Z" fill="currentColor" opacity=".05"/>
  <path d="M10 4C10 4 13 3 18 3.5V19.5C13 19 10 20 10 20V4Z" stroke="currentColor" strokeWidth="1.1" strokeLinejoin="round"/>
  <!-- Code brackets on left page -->
  <path d="M6 10L4.5 12L6 14" stroke="var(--accent, #4f46e5)" strokeWidth="1.2" strokeLinecap="round" strokeLinejoin="round"/>
  <!-- Code brackets on right page -->
  <path d="M14 10L15.5 12L14 14" stroke="var(--accent, #4f46e5)" strokeWidth="1.2" strokeLinecap="round" strokeLinejoin="round"/>
  <!-- Connecting dot between pages (graph node) -->
  <circle cx="10" cy="12" r="1" fill="var(--accent, #4f46e5)" opacity=".6"/>
</svg>
